<?xml version="1.0" encoding="utf-8"?>
<!-- Generator: Adobe Illustrator 15.1.0, SVG Export Plug-In . SVG Version: 6.00 Build 0)  -->
<!DOCTYPE svg PUBLIC "-//W3C//DTD SVG 1.1//EN" "http://www.w3.org/Graphics/SVG/1.1/DTD/svg11.dtd" [
	<!ENTITY ns_flows "http://ns.adobe.com/Flows/1.0/">
	<!ENTITY ns_extend "http://ns.adobe.com/Extensibility/1.0/">
	<!ENTITY ns_ai "http://ns.adobe.com/AdobeIllustrator/10.0/">
	<!ENTITY ns_graphs "http://ns.adobe.com/Graphs/1.0/">
]>
<svg version="1.1" xmlns:x="&ns_extend;" xmlns:i="&ns_ai;" xmlns:graph="&ns_graphs;"
	 xmlns="http://www.w3.org/2000/svg" xmlns:xlink="http://www.w3.org/1999/xlink" xmlns:a="http://ns.adobe.com/AdobeSVGViewerExtensions/3.0/"
	 x="0px" y="0px" width="792px" height="612px" viewBox="0 0 792 612" enable-background="new 0 0 792 612" xml:space="preserve">
<g id="Layer_3">
</g>
<g id="Layer_4">
	<line fill="none" stroke="#000000" stroke-width="3" stroke-miterlimit="10" x1="124.707" y1="208.01" x2="124.707" y2="208.01"/>
	<path fill="none" stroke="#5CBA47" stroke-miterlimit="10" d="M116.914,212.407"/>
</g>
<g id="Layer_2">
	<g>
		<g id="XMLID_1_">
			<g>
				<path fill="#FFFFFF" d="M663.08,457.07v22c-1.08,7.66-8.84,7.66-8.84,7.66H135.08h-2.58c0,0-6.21,0.649-8.34-5.671v-25.81
					c0,0,0.81-5.79,7.13-5.02c0,0,16.18,0.46,18.25,0c2.06-0.461,4.37-3.171,4.37-3.171l96.75-119.5l-54-109.5
					c0,0-0.66-1.95-3.5-3.06c-1.35-0.53-3.57-0.67-5.75-0.69h-53.5c-7.34,0.88-8.16-6.3-8.16-6.3v-23.95c0.5-7,8.16-7.5,8.16-7.5
					h157.25c0,0,6.92,0.17,9.92,7.5v24.8v0.04c-0.83,5.83-6.17,5.41-6.17,5.41h-45.5l36.5,71l58.5-71h-36.95
					c0,0-5.33,0.39-6.14-5.45l0.14-24.83c3.03-7.32,9.95-7.45,9.95-7.45v-0.02h166c0,0,6.92,0.14,9.96,7.61l0.13,25.37
					c-0.8,5.97-6.14,5.57-6.14,5.57l-37.7-0.05l58,70.25l36.75-70.25l-44.7,0.05c0,0-5.33,0.4-6.14-5.57l0.14-25.37
					c3.03-7.47,9.95-7.61,9.95-7.61h156.58c0,0,6.84,0.42,7.76,6.34v26.41c0,0-2.09,6.25-7.76,5.75h-55.16
					c-5.34-0.27-8.17,7.5-8.17,7.5l-52.5,105l98.75,120.75c2,1.921,4.92,1.921,4.92,1.921h15.66
					C662.74,450.4,663.08,457.07,663.08,457.07z"/>
			</g>
			<g>
				<line fill="none" stroke="#000000" stroke-width="3" stroke-miterlimit="10" x1="311.41" y1="176.56" x2="477.41" y2="176.56"/>
				<path fill="none" stroke="#000000" stroke-width="3" stroke-miterlimit="10" d="M307.46,214.31c0,0-5.33,0.39-6.14-5.45
					l0.14-24.83c3.03-7.32,9.95-7.45,9.95-7.45"/>
				<path fill="none" stroke="#000000" stroke-width="3" stroke-miterlimit="10" d="M493.71,215.11c0,0-5.33,0.4-6.14-5.57
					l0.14-25.37c3.03-7.47,9.95-7.61,9.95-7.61"/>
				<path fill="none" stroke="#000000" stroke-width="3" stroke-miterlimit="10" d="M481.36,215.11c0,0,5.34,0.4,6.14-5.57
					l-0.13-25.37c-3.04-7.47-9.96-7.61-9.96-7.61"/>
				<polyline fill="none" stroke="#000000" stroke-width="3" stroke-miterlimit="10" points="493.71,215.11 538.41,215.06 
					501.66,285.31 443.66,215.06 481.36,215.11 				"/>
				<path fill="none" stroke="#000000" stroke-width="3" stroke-miterlimit="10" d="M657.74,450.23c5,0.17,5.34,6.84,5.34,6.84v22
					c-1.08,7.66-8.84,7.66-8.84,7.66H135.08h-2.58c0,0-6.21,0.649-8.34-5.671v-25.81c0,0,0.81-5.79,7.13-5.02
					c0,0,16.18,0.46,18.25,0c2.06-0.461,4.37-3.171,4.37-3.171l96.75-119.5l-54-109.5c0,0-0.66-1.95-3.5-3.06
					c-1.35-0.53-3.57-0.67-5.75-0.69h-53.5c-7.34,0.88-8.16-6.3-8.16-6.3v-23.95c0.5-7,8.16-7.5,8.16-7.5h157.25
					c0,0,6.92,0.17,9.92,7.5v24.8v0.04c-0.83,5.83-6.17,5.41-6.17,5.41h-45.5l36.5,71l58.5-71h-36.95"/>
				<path fill="none" stroke="#000000" stroke-width="3" stroke-miterlimit="10" d="M658.41,450.23h-0.67h-15.66
					c0,0-2.92,0-4.92-1.921l-98.75-120.75l52.5-105c0,0,2.83-7.77,8.17-7.5h55.16c5.67,0.5,7.76-5.75,7.76-5.75V182.9
					c-0.92-5.92-7.76-6.34-7.76-6.34H497.66"/>
			</g>
		</g>
	</g>
	<path d="M240.787,219.439l39.875,79.75c0,0,2.93,7.214,8.25,0.75l69.167-84.042c4.5-9.333-5.168-11.333-5.168-11.333h-42.333
		v-17.667h167v17.667h-40c0,0-9.791,2.25-6.041,11.625l67.875,82.875c0,0,4.25,6.083,8.666,0.083l40.084-79.583
		c7-10.25-2.75-15-2.75-15h-48.5v-17.667h156.332v17.667h-55.666c0,0-10.25,1.667-14.332,10.667l-58.5,114.167l102.666,124.333
		l6,6.833l20.832,0.334v14.333H134.91v-14.333h20.002c0,0,1.522-1.588,2.974-3.232c3.138-3.554,3.779-4.265,10.692-12.435
		l96.083-116.417l-54.417-106.75c-6.833-14.75-14.668-17.5-14.668-17.5H133.91v-17.667h156.667v17.667h-48.665
		C241.912,204.564,234.162,208.981,240.787,219.439z"/>
	<g>
		<path fill="#FFFFFF" d="M494.973,386.378c2.354-4.972,6.934-5.406,10.18-0.967l48.189,65.913c3.246,4.439,1.402,8.072-4.098,8.072
			H470.41c-5.5,0-8.074-4.067-5.721-9.039L494.973,386.378z"/>
	</g>
	<polygon fill="#B52039" points="394.577,254.064 311.412,354.564 364.412,460.564 428.412,460.564 479.662,357.314 	"/>
	<path fill="none" stroke="#00AEEF" stroke-miterlimit="10" d="M319.412,460.564"/>
	<path fill="none" stroke="#00AEEF" stroke-miterlimit="10" d="M240.079,460.564"/>
	<path fill="none" stroke="#00AEEF" stroke-miterlimit="10" d="M135.162,214.314"/>
	<path fill="none" stroke="#00AEEF" stroke-width="5" stroke-miterlimit="10" d="M637.412,370.814"/>
	<g>
		<path fill="#FFFFFF" d="M293.765,386.378c-2.353-4.972-6.934-5.406-10.18-0.967l-48.189,65.913
			c-3.246,4.439-1.402,8.072,4.098,8.072h78.833c5.5,0,8.075-4.067,5.722-9.039L293.765,386.378z"/>
	</g>
	<polygon fill="none" stroke="#000000" stroke-width="3" stroke-miterlimit="10" points="500.91,397.564 474.91,450.231 
		543.244,450.231 	"/>
	<polygon fill="none" stroke="#000000" stroke-width="3" stroke-miterlimit="10" points="288.244,397.564 247.577,450.231 
		312.911,450.231 	"/>
</g>
</svg>
